PathFileType	4	(X/Y/Z)	RBDS023static.trc
DataRate	CameraRate	NumFrames	NumMarkers	Units	OrigDataRate	OrigDataStartFrame	OrigNumFrames
150.000000	150.000000	4	48	mm	150.000000	0	150
Frame#	Time	L.Ankle			L.Ankle.Medial			L.ASIS			L.GTR			L.Heel.Bottom			L.Heel.Lateral			L.Heel.Top			L.HF			L.Iliac.Crest			L.Knee			L.Knee.Medial			L.MT1			L.MT2			L.MT5			L.PSIS			L.Shank.Bottom.Lateral			L.Shank.Bottom.Medial			L.Shank.Top.Lateral			L.Shank.Top.Medial			L.Thigh.Bottom.Lateral			L.Thigh.Bottom.Medial			L.Thigh.Top.Lateral			L.Thigh.Top.Medial			L.TT			R.Ankle			R.Ankle.Medial			R.ASIS			R.GTR			R.Heel.Bottom			R.Heel.Lateral			R.Heel.Top			R.HF			R.Iliac.Crest			R.Knee			R.Knee.Medial			R.MT1			R.MT2			R.MT5			R.PSIS			R.Shank.Bottom.Lateral			R.Shank.Bottom.Medial			R.Shank.Top.Lateral			R.Shank.Top.Medial			R.Thigh.Bottom.Lateral			R.Thigh.Bottom.Medial			R.Thigh.Top.Lateral			R.Thigh.Top.Medial			R.TT			
		X1	Y1	Z1	X2	Y2	Z2	X3	Y3	Z3	X4	Y4	Z4	X5	Y5	Z5	X6	Y6	Z6	X7	Y7	Z7	X8	Y8	Z8	X9	Y9	Z9	X10	Y10	Z10	X11	Y11	Z11	X12	Y12	Z12	X13	Y13	Z13	X14	Y14	Z14	X15	Y15	Z15	X16	Y16	Z16	X17	Y17	Z17	X18	Y18	Z18	X19	Y19	Z19	X20	Y20	Z20	X21	Y21	Z21	X22	Y22	Z22	X23	Y23	Z23	X24	Y24	Z24	X25	Y25	Z25	X26	Y26	Z26	X27	Y27	Z27	X28	Y28	Z28	X29	Y29	Z29	X30	Y30	Z30	X31	Y31	Z31	X32	Y32	Z32	X33	Y33	Z33	X34	Y34	Z34	X35	Y35	Z35	X36	Y36	Z36	X37	Y37	Z37	X38	Y38	Z38	X39	Y39	Z39	X40	Y40	Z40	X41	Y41	Z41	X42	Y42	Z42	X43	Y43	Z43	X44	Y44	Z44	X45	Y45	Z45	X46	Y46	Z46	X47	Y47	Z47	X48	Y48	Z48	

1	0	708.8665771484375	102.7077560424805	1034.659790039063	735.04248046875	121.9823150634766	1117.467895507813	831.0169677734375	1063.982177734375	1125.970703125	766.5712280273438	977.1812744140625	1063.127075195313	639.4364624023438	41.34347152709961	1077.951904296875	668.7637939453125	61.47203063964844	1039.5068359375	649.89453125	87.67152404785156	1080.195678710938	712.56005859375	481.4480285644531	1033.997924804688	749.8981323242188	1126.292358398438	1073.865844726563	724.7991333007813	553.1707763671875	1046.411499023438	716.4420776367188	529.2022094726563	1164.422607421875	860.6810302734375	53.49124526977539	1126.317626953125	872.4900512695313	69.56784820556641	1082.909057617188	834.9187622070313	45.13546752929688	1010.44384765625	646.8023681640625	1079.923950195313	1174.092041015625	714.3939819335938	178.8348846435547	1030.460693359375	672.0632934570313	171.4597778320313	1058.292114257813	697.5222778320313	257.9632263183594	1019.56005859375	655.25634765625	254.7442474365234	1050.70068359375	734.9320678710938	713.1002197265625	1031.566650390625	673.9166259765625	714.0878295898438	1069.517211914063	734.3154296875	823.3753051757813	1033.959350585938	678.9700927734375	824.2643432617188	1073.904541015625	771.563720703125	462.8210754394531	1081.64501953125	698.5199584960938	105.0115737915039	1420.171630859375	731.3139038085938	123.0687866210938	1340.016235351563	826.0385131835938	1068.072387695313	1341.428588867188	746.807861328125	970.4483642578125	1403.026977539063	632.3222045898438	40.6784782409668	1373.815063476563	662.1362915039063	58.46892166137695	1416.942504882813	642.5394897460938	87.87429809570313	1373.412353515625	725.6365966796875	492.9696044921875	1416.809936523438	739.53369140625	1139.904418945313	1380.220947265625	727.2062377929688	558.9137573242188	1409.928466796875	741.808837890625	538.7645263671875	1291.782958984375	854.30810546875	53.93014526367188	1331.209106445313	862.9506225585938	71.04122924804688	1376.129150390625	829.0248413085938	47.4021110534668	1447.192749023438	644.4009399414063	1086.09130859375	1282.816040039063	708.2210693359375	185.6631317138672	1426.357543945313	662.1196899414063	184.7220306396484	1395.217041015625	697.8818359375	265.6353759765625	1437.224853515625	653.4837036132813	264.0418395996094	1406.20361328125	715.7904052734375	681.4223022460938	1418.417724609375	666.7994384765625	675.986572265625	1363.695922851563	704.585693359375	790.5075073242188	1413.4609375	659.95654296875	785.571533203125	1360.701904296875	778.5599975585938	463.7721252441406	1371.980346679688	
2	0.006666666666666667	708.8585205078125	102.7158203125	1034.65576171875	735.032958984375	121.9860687255859	1117.476318359375	831.0333862304688	1063.980346679688	1125.977416992188	766.5782470703125	977.1819458007813	1063.134887695313	639.4401245117188	41.33746719360352	1077.956298828125	668.7650756835938	61.46852111816406	1039.527465820313	649.900634765625	87.67403411865234	1080.191772460938	712.564697265625	481.4459228515625	1034.01318359375	749.892822265625	1126.30859375	1073.871215820313	724.815673828125	553.1796264648438	1046.41259765625	716.4471435546875	529.195556640625	1164.41650390625	860.6793823242188	53.49552154541016	1126.318969726563	872.4879150390625	69.56568145751953	1082.89990234375	834.9260864257813	45.14323806762695	1010.443664550781	646.8169555664063	1079.918579101563	1174.097412109375	714.3853149414063	178.8423919677734	1030.452758789063	672.0692749023438	171.4614105224609	1058.30322265625	697.5261840820313	257.9682312011719	1019.551452636719	655.2672119140625	254.7427520751953	1050.690673828125	734.9426879882813	713.0994873046875	1031.568725585938	673.9264526367188	714.0933837890625	1069.509033203125	734.3111572265625	823.38330078125	1033.96484375	678.9759521484375	824.2693481445313	1073.903930664063	771.572998046875	462.8131408691406	1081.655883789063	698.51220703125	105.0171585083008	1420.166137695313	731.3119506835938	123.0704803466797	1340.014892578125	826.0437622070313	1068.070190429688	1341.433837890625	746.8202514648438	970.455322265625	1403.026123046875	632.326416015625	40.68052673339844	1373.819458007813	662.1353759765625	58.47105407714844	1416.951171875	642.5355224609375	87.87450408935547	1373.41796875	725.6375732421875	492.9745483398438	1416.818359375	739.5440063476563	1139.892944335938	1380.222412109375	727.2146606445313	558.9202880859375	1409.940307617188	741.8289184570313	538.765625	1291.791259765625	854.3108520507813	53.93688201904297	1331.216552734375	862.9528198242188	71.04014587402344	1376.12646484375	829.0327758789063	47.4091911315918	1447.191650390625	644.4111328125	1086.086791992188	1282.812622070313	708.2301025390625	185.6578674316406	1426.359252929688	662.121337890625	184.7168121337891	1395.225708007813	697.8897705078125	265.6348266601563	1437.224731445313	653.4923706054688	264.0421447753906	1406.208862304688	715.7901611328125	681.4312744140625	1418.430297851563	666.8056030273438	675.9833984375	1363.698364257813	704.59765625	790.5194702148438	1413.472900390625	659.9608154296875	785.5762329101563	1360.720703125	778.5646362304688	463.7687072753906	1371.975341796875	
3	0.01333333333333333	708.8770751953125	102.7064437866211	1034.665771484375	735.0498046875	121.992057800293	1117.469848632813	831.035400390625	1063.989501953125	1125.973022460938	766.5714721679688	977.1845092773438	1063.140502929688	639.4334106445313	41.34486389160156	1077.957885742188	668.775390625	61.47075271606445	1039.518798828125	649.8924560546875	87.68054962158203	1080.18896484375	712.5725708007813	481.4446716308594	1034.00927734375	749.90576171875	1126.303466796875	1073.886474609375	724.8460693359375	553.1694946289063	1046.407836914063	716.455810546875	529.2000122070313	1164.417358398438	860.6815795898438	53.48771286010742	1126.320678710938	872.4887084960938	69.56600189208984	1082.90087890625	834.9293823242188	45.14676284790039	1010.4453125	646.8236694335938	1079.91748046875	1174.104736328125	714.396240234375	178.8414459228516	1030.466186523438	672.0631713867188	171.4620513916016	1058.299682617188	697.5252075195313	257.9725036621094	1019.557189941406	655.2720336914063	254.7390289306641	1050.696899414063	734.9383544921875	713.1185302734375	1031.561645507813	673.9317626953125	714.09814453125	1069.510498046875	734.312744140625	823.3811645507813	1033.964721679688	678.9761962890625	824.2750244140625	1073.9072265625	771.576416015625	462.8114929199219	1081.6455078125	698.5092163085938	105.0237731933594	1420.186645507813	731.3241577148438	123.06103515625	1340.019653320313	826.0589599609375	1068.074462890625	1341.442138671875	746.836181640625	970.4486694335938	1403.031494140625	632.322265625	40.68403244018555	1373.819702148438	662.133056640625	58.4774055480957	1416.943481445313	642.5419311523438	87.87545013427734	1373.417724609375	725.6482543945313	492.9744262695313	1416.8056640625	739.5498046875	1139.8955078125	1380.236572265625	727.2222900390625	558.91064453125	1409.930786132813	741.8258056640625	538.7677001953125	1291.79150390625	854.306884765625	53.93304443359375	1331.21142578125	862.9534912109375	71.03767395019531	1376.1328125	829.0366821289063	47.4065055847168	1447.181030273438	644.41552734375	1086.08154296875	1282.8154296875	708.2322387695313	185.6527557373047	1426.36376953125	662.1217041015625	184.7239379882813	1395.223022460938	697.8958740234375	265.6387939453125	1437.232788085938	653.5013427734375	264.0430603027344	1406.222290039063	715.8096313476563	681.4307250976563	1418.430297851563	666.8051147460938	675.9893798828125	1363.720092773438	704.6133422851563	790.513916015625	1413.470458984375	659.9730834960938	785.579833984375	1360.7177734375	778.5691528320313	463.759033203125	1371.97802734375	
4	0.02	708.858642578125	102.7071304321289	1034.654663085938	735.044677734375	121.9943771362305	1117.470581054688	831.0426635742188	1063.992065429688	1125.97509765625	766.5823974609375	977.182861328125	1063.144165039063	639.4378051757813	41.34173965454102	1077.956176757813	668.7767333984375	61.47253036499023	1039.52978515625	649.895263671875	87.68087005615234	1080.183837890625	712.58544921875	481.4525756835938	1034.004516601563	749.9324340820313	1126.30517578125	1073.89306640625	724.8280639648438	553.1825561523438	1046.401611328125	716.4664306640625	529.1939697265625	1164.416259765625	860.680908203125	53.49237823486328	1126.319702148438	872.4876098632813	69.56221008300781	1082.905517578125	834.9274291992188	45.14554977416992	1010.443542480469	646.8278198242188	1079.92138671875	1174.10693359375	714.3930053710938	178.8445739746094	1030.461181640625	672.0733032226563	171.4651794433594	1058.304931640625	697.5361328125	257.9703979492188	1019.560302734375	655.2719116210938	254.7427062988281	1050.694091796875	734.93505859375	713.114990234375	1031.562866210938	673.9298095703125	714.0956420898438	1069.521118164063	734.3269653320313	823.3800048828125	1033.973022460938	678.9815673828125	824.2725830078125	1073.918579101563	771.584716796875	462.8111877441406	1081.652221679688	698.5228271484375	105.0155715942383	1420.170166015625	731.3233032226563	123.0634689331055	1340.012451171875	826.0711669921875	1068.074829101563	1341.428588867188	746.8421630859375	970.4518432617188	1403.035522460938	632.3280639648438	40.67613983154297	1373.820434570313	662.1343383789063	58.47690963745117	1416.944946289063	642.5385131835938	87.88031768798828	1373.40625	725.6470336914063	492.960693359375	1416.813842773438	739.5626831054688	1139.898193359375	1380.25537109375	727.2159423828125	558.9177856445313	1409.945678710938	741.8289184570313	538.7630004882813	1291.795654296875	854.3096923828125	53.93414688110352	1331.209106445313	862.9508056640625	71.03471374511719	1376.123291015625	829.0361328125	47.40420913696289	1447.190185546875	644.4271240234375	1086.093994140625	1282.830810546875	708.2380981445313	185.6500244140625	1426.35986328125	662.1331176757813	184.7203979492188	1395.23046875	697.8980102539063	265.6292114257813	1437.23779296875	653.5078735351563	264.0418090820313	1406.227294921875	715.818603515625	681.434814453125	1418.43701171875	666.8114013671875	676.0007934570313	1363.73095703125	704.624755859375	790.5162963867188	1413.4814453125	659.981689453125	785.577392578125	1360.738647460938	778.5845947265625	463.7653503417969	1371.96240234375	
